<svg xmlns="http://www.w3.org/2000/svg" version="1.1" xmlns:xlink="http://www.w3.org/1999/xlink" xmlns:svgjs="http://svgjs.com/svgjs" width="1920" height="1080" preserveAspectRatio="none" viewBox="0 0 1920 1080"><g mask="url(&quot;#SvgjsMask1034&quot;)" fill="none"><path d="M0 106.36C43.04 33.52 73.89 33.74 159.55 0C208.89 -19.44 214.77 0 270 0C326.51 0 332.37 -19.48 383.02 0C467.37 32.44 452.35 80.27 540 103.85C665.84 137.71 697.46 149.77 810 114.89C864.99 97.85 822.16 22.51 875.06 0C957.16 -34.94 977.53 0 1080 0C1215 0 1215 0 1350 0C1428.3 0 1442.2 -30.74 1506.6 0C1577.2 33.69 1555.68 128.86 1620 128.86C1703.83 128.86 1705.73 46.38 1802.9 0C1840.73 -18.05 1846.45 0 1890 0C2025 0 2025 0 2160 0C2160 0 2160 0 2160 0C2160 135 2160 135 2160 270C2160 405 2160 405 2160 540C2160 675 2160 675 2160 810C2160 945 2227.5 1012.5 2160 1080C2092.5 1147.5 2025 1080 1890 1080C1856.25 1080 1850.38 1096.73 1822.5 1080C1715.38 1015.73 1697.33 918 1620 918C1569.08 918 1625.6 1044.24 1566 1080C1490.6 1125.24 1458 1080 1350 1080C1236.32 1080 1226.59 1100.34 1122.63 1080C1091.59 1073.93 1101.32 1027.17 1080 1027.17C1058.68 1027.17 1068.41 1073.93 1037.37 1080C933.41 1100.34 923.68 1080 810 1080C675 1080 675 1080 540 1080C460.59 1080 451.88 1104.14 381.18 1080C316.88 1058.04 323.16 987.8 270 987.8C222.57 987.8 236.32 1060.77 180 1080C101.32 1106.87 36 1134 0 1080C-54 999 0 945 0 810C0 675 0 675 0 540C0 405 0 405 0 270C0 188.18 -36.73 168.52 0 106.36" stroke="rgba(194, 51, 110, 1)" stroke-width="2"></path><path d="M270 127.89C225 127.89 180 193.8 180 270C180 393.42 225 527.14 270 527.14C315 527.14 360 393.42 360 270C360 193.8 315 127.89 270 127.89" stroke="rgba(194, 51, 110, 1)" stroke-width="2"></path><path d="M540 459.47C427.09 459.47 285 493.96 285 540C285 587.59 432.72 646.74 540 646.74C586 646.74 591.57 591.83 591.57 540C591.57 498.19 580.38 459.47 540 459.47" stroke="rgba(194, 51, 110, 1)" stroke-width="2"></path><path d="M1080 482.96C1051.95 482.96 1033.45 509.78 1033.45 540C1033.45 577.24 1050.24 617.88 1080 617.88C1119.54 617.88 1172.05 575.54 1172.05 540C1172.05 508.08 1121.25 482.96 1080 482.96" stroke="rgba(194, 51, 110, 1)" stroke-width="2"></path><path d="M1350 730.98C1308.51 730.98 1283.88 773.63 1283.88 810C1283.88 840.14 1311.98 864 1350 864C1426.04 864 1512 842.36 1512 810C1512 775.85 1422.57 730.98 1350 730.98" stroke="rgba(194, 51, 110, 1)" stroke-width="2"></path><path d="M0 208.64C20.18 208.64 48.3 229.81 67.5 270C127.44 395.49 106.59 407.46 158.28 540C207.84 667.08 174.09 722.97 270 789.23C364.95 854.83 444.61 863.54 540 803.72C643.32 738.92 667.42 668.05 667.42 540C667.42 436.71 608.89 436.47 540 341.05C511.43 301.47 472.5 304.42 472.5 270C472.5 237.74 497.71 209.13 540 207.69C666.46 203.38 709.97 308.4 810 258.51C918.16 204.56 861.06 91.28 956.39 0C996.06 -37.98 1018.19 0 1080 0C1215 0 1215 0 1350 0C1360.8 0 1364.35 -7.72 1371.6 0C1491.17 127.28 1487.68 134.95 1603.64 270C1611.88 279.59 1609.07 289.29 1620 289.29C1647.25 289.29 1650.65 281.43 1680 270C1785.65 228.83 1783.39 222.64 1890 184.09C2023.39 135.86 2076.22 69.77 2160 96.43C2211.22 112.73 2160 183.22 2160 270C2160 405 2160 405 2160 540C2160 675 2160 675 2160 810C2160 862.83 2197.09 891.54 2160 915.65C2062.09 979.29 2009.14 1012.98 1890 985.5C1780.12 960.16 1790.59 902.65 1701.96 810C1655.59 761.53 1674.16 740.75 1620 703.26C1498.18 618.92 1481.62 639.29 1350 566.34C1334.35 557.66 1340.42 549.89 1325.45 540C1205.42 460.67 1190 387.89 1080 387.89C1005.21 387.89 955.86 459.41 955.86 540C955.86 639.31 1010.84 649.54 1080 747.69C1105.97 784.54 1146.12 777.83 1146.12 810C1146.12 844.2 1122.84 880.43 1080 880.43C965.16 880.43 955.41 845.11 830.77 810C820.41 807.08 820.7 804.38 810 804.38C742.81 804.38 675 805.79 675 810C675 814.22 770.3 777.31 810 821.25C892.28 912.31 918.95 986.79 918.95 1080C918.95 1116.17 864.47 1080 810 1080C699.11 1080 654.47 1135.21 588.21 1080C519.47 1022.71 612.93 913.87 540 855C453.83 785.45 382.21 774.68 270 823.17C121.86 887.18 147.4 958.13 19.29 1080C12.4 1086.55 0.64 1089 0 1080C-9 954 0 945 0 810C0 675 0 675 0 540C0 405 0 405 0 270C0 239.32 -13.57 208.64 0 208.64" stroke="rgba(194, 51, 110, 1)" stroke-width="2"></path><path d="M1241.05 1080C1241.05 1050 1296.19 976.5 1350 976.5C1402.41 976.5 1453.5 1049.69 1453.5 1080C1453.5 1101.44 1401.75 1080 1350 1080C1295.53 1080 1241.05 1101.75 1241.05 1080" stroke="rgba(194, 51, 110, 1)" stroke-width="2"></path><path d="M1024.14 270C1006.85 150.31 1013.56 116.74 1037.71 0C1041.49 -18.26 1058.86 0 1080 0C1131.62 0 1145.71 -29.19 1183.24 0C1280.71 75.81 1266.28 105.28 1350 210C1374.2 240.28 1399.09 240 1399.09 270C1399.09 300 1385.33 327.47 1350 330C1225.79 338.88 1213.4 317.38 1080 292.82C1050.47 287.38 1028 296.72 1024.14 270" stroke="rgba(194, 51, 110, 1)" stroke-width="2"></path><path d="M2017.89 270C2074.96 215.65 2111.89 192.86 2160 192.86C2182.95 192.86 2160 231.43 2160 270C2160 405 2160 405 2160 540C2160 618.16 2193.12 634.21 2160 696.32C2121.12 769.21 2092.36 760.03 2016 810C1957.36 848.37 1948.44 873 1890 873C1851.69 873 1851.84 845.5 1822.5 810C1716.84 682.14 1723.11 675.91 1620 546.28C1615.73 540.91 1607.73 543.73 1607.73 540C1607.73 535.77 1612.59 532.72 1620 530.36C1753.73 487.72 1778.47 522.98 1890 450C1977.42 392.8 1939.96 344.22 2017.89 270" stroke="rgba(194, 51, 110, 1)" stroke-width="2"></path><path d="M0 412.11C10.74 412.11 41.9 478.16 41.9 540C41.9 578.93 11.21 613.64 0 613.64C-9.74 613.64 0 576.82 0 540C0 476.06 -10.21 412.11 0 412.11" stroke="rgba(194, 51, 110, 1)" stroke-width="2"></path><path d="M743.26 540C743.26 474.44 776.32 408 810 408C843.83 408 878.28 474.46 878.28 540C878.28 602.33 843.84 663.75 810 663.75C776.33 663.75 743.26 602.32 743.26 540" stroke="rgba(194, 51, 110, 1)" stroke-width="2"></path></g><defs><mask id="SvgjsMask1034"><rect width="1920" height="1080" fill="#ffffff"></rect></mask></defs></svg>